REM DIRINDEX 1\2,1\3,1\4
REM DIRNAME cjc151,folder01,folder02,folder03
TITLE ""
FILE "071 071_TOEFL_3900.mp3" MP3
  TRACK 01 AUDIO
    TITLE "2:cjc151_3073"
    INDEX 01 00:00:00
  TRACK 02 AUDIO
    TITLE "0:"
    INDEX 01 00:01:19
  TRACK 03 AUDIO
    TITLE "3:cjc151_3074"
    INDEX 01 00:02:73
  TRACK 04 AUDIO
    TITLE "0:"
    INDEX 01 00:06:47
  TRACK 05 AUDIO
    TITLE "2:cjc151_3075"
    INDEX 01 00:08:34
  TRACK 06 AUDIO
    TITLE "0:"
    INDEX 01 00:09:59
  TRACK 07 AUDIO
    TITLE "3:cjc151_3076"
    INDEX 01 00:11:39
  TRACK 08 AUDIO
    TITLE "0:"
    INDEX 01 00:14:64
  TRACK 09 AUDIO
    TITLE "2:cjc151_3077"
    INDEX 01 00:16:44
  TRACK 10 AUDIO
    TITLE "0:"
    INDEX 01 00:17:51
  TRACK 11 AUDIO
    TITLE "3:cjc151_3078"
    INDEX 01 00:19:30
  TRACK 12 AUDIO
    TITLE "0:"
    INDEX 01 00:24:39
  TRACK 13 AUDIO
    TITLE "2:cjc151_3079"
    INDEX 01 00:26:17
  TRACK 14 AUDIO
    TITLE "0:"
    INDEX 01 00:27:22
  TRACK 15 AUDIO
    TITLE "3:cjc151_3080"
    INDEX 01 00:29:07
  TRACK 16 AUDIO
    TITLE "0:"
    INDEX 01 00:33:01
  TRACK 17 AUDIO
    TITLE "2:cjc151_3081"
    INDEX 01 00:34:57
  TRACK 18 AUDIO
    TITLE "0:"
    INDEX 01 00:35:63
  TRACK 19 AUDIO
    TITLE "3:cjc151_3082"
    INDEX 01 00:37:42
  TRACK 20 AUDIO
    TITLE "0:"
    INDEX 01 00:41:55
  TRACK 21 AUDIO
    TITLE "2:cjc151_3083"
    INDEX 01 00:43:33
  TRACK 22 AUDIO
    TITLE "0:"
    INDEX 01 00:44:34
  TRACK 23 AUDIO
    TITLE "3:cjc151_3084"
    INDEX 01 00:46:11
  TRACK 24 AUDIO
    TITLE "0:"
    INDEX 01 00:49:16
  TRACK 25 AUDIO
    TITLE "2:cjc151_3085"
    INDEX 01 00:50:70
  TRACK 26 AUDIO
    TITLE "0:"
    INDEX 01 00:51:71
  TRACK 27 AUDIO
    TITLE "3:cjc151_3086"
    INDEX 01 00:53:49
  TRACK 28 AUDIO
    TITLE "0:"
    INDEX 01 00:56:72
  TRACK 29 AUDIO
    TITLE "2:cjc151_3087"
    INDEX 01 00:58:62
  TRACK 30 AUDIO
    TITLE "0:"
    INDEX 01 01:00:12
  TRACK 31 AUDIO
    TITLE "3:cjc151_3088"
    INDEX 01 01:01:62
  TRACK 32 AUDIO
    TITLE "0:"
    INDEX 01 01:05:24
  TRACK 33 AUDIO
    TITLE "2:cjc151_3089"
    INDEX 01 01:07:00
  TRACK 34 AUDIO
    TITLE "0:"
    INDEX 01 01:08:15
  TRACK 35 AUDIO
    TITLE "3:cjc151_3090"
    INDEX 01 01:09:69
  TRACK 36 AUDIO
    TITLE "0:"
    INDEX 01 01:13:20
  TRACK 37 AUDIO
    TITLE "2:cjc151_3091"
    INDEX 01 01:14:72
  TRACK 38 AUDIO
    TITLE "0:"
    INDEX 01 01:16:11
  TRACK 39 AUDIO
    TITLE "3:cjc151_3092"
    INDEX 01 01:17:65
  TRACK 40 AUDIO
    TITLE "0:"
    INDEX 01 01:21:65
  TRACK 41 AUDIO
    TITLE "2:cjc151_3093"
    INDEX 01 01:23:44
  TRACK 42 AUDIO
    TITLE "0:"
    INDEX 01 01:24:41
  TRACK 43 AUDIO
    TITLE "3:cjc151_3094"
    INDEX 01 01:26:19
  TRACK 44 AUDIO
    TITLE "0:"
    INDEX 01 01:29:41
  TRACK 45 AUDIO
    TITLE "2:cjc151_3095"
    INDEX 01 01:31:20
  TRACK 46 AUDIO
    TITLE "0:"
    INDEX 01 01:32:21
  TRACK 47 AUDIO
    TITLE "3:cjc151_3096"
    INDEX 01 01:33:74
  TRACK 48 AUDIO
    TITLE "0:"
    INDEX 01 01:36:60
  TRACK 49 AUDIO
    TITLE "2:cjc151_3097"
    INDEX 01 01:38:42
  TRACK 50 AUDIO
    TITLE "0:"
    INDEX 01 01:39:43
  TRACK 51 AUDIO
    TITLE "3:cjc151_3098"
    INDEX 01 01:41:22
  TRACK 52 AUDIO
    TITLE "0:"
    INDEX 01 01:44:30
  TRACK 53 AUDIO
    TITLE "2:cjc151_3099"
    INDEX 01 01:46:10
  TRACK 54 AUDIO
    TITLE "0:"
    INDEX 01 01:47:21
  TRACK 55 AUDIO
    TITLE "3:cjc151_3100"
    INDEX 01 01:49:00
  TRACK 56 AUDIO
    TITLE "0:"
    INDEX 01 01:53:35
  TRACK 57 AUDIO
    TITLE "2:cjc151_3101"
    INDEX 01 01:55:15
  TRACK 58 AUDIO
    TITLE "0:"
    INDEX 01 01:56:26
  TRACK 59 AUDIO
    TITLE "3:cjc151_3102"
    INDEX 01 01:58:05
  TRACK 60 AUDIO
    TITLE "0:"
    INDEX 01 02:01:43
  TRACK 61 AUDIO
    TITLE "2:cjc151_3103"
    INDEX 01 02:03:41
  TRACK 62 AUDIO
    TITLE "0:"
    INDEX 01 02:04:39
  TRACK 63 AUDIO
    TITLE "3:cjc151_3104"
    INDEX 01 02:06:20
  TRACK 64 AUDIO
    TITLE "0:"
    INDEX 01 02:09:34
  TRACK 65 AUDIO
    TITLE "2:cjc151_3105"
    INDEX 01 02:11:17
  TRACK 66 AUDIO
    TITLE "0:"
    INDEX 01 02:12:35
  TRACK 67 AUDIO
    TITLE "3:cjc151_3106"
    INDEX 01 02:14:12
  TRACK 68 AUDIO
    TITLE "0:"
    INDEX 01 02:17:18
  TRACK 69 AUDIO
    TITLE "2:cjc151_3107"
    INDEX 01 02:18:72
  TRACK 70 AUDIO
    TITLE "0:"
    INDEX 01 02:19:74
  TRACK 71 AUDIO
    TITLE "3:cjc151_3108"
    INDEX 01 02:21:53
  TRACK 72 AUDIO
    TITLE "0:"
    INDEX 01 02:25:18
  TRACK 73 AUDIO
    TITLE "2:cjc151_3109"
    INDEX 01 02:26:68
  TRACK 74 AUDIO
    TITLE "0:"
    INDEX 01 02:27:63
  TRACK 75 AUDIO
    TITLE "3:cjc151_3110"
    INDEX 01 02:29:41
  TRACK 76 AUDIO
    TITLE "0:"
    INDEX 01 02:33:27
  TRACK 77 AUDIO
    TITLE "2:cjc151_3111"
    INDEX 01 02:35:04
  TRACK 78 AUDIO
    TITLE "0:"
    INDEX 01 02:35:67
  TRACK 79 AUDIO
    TITLE "3:cjc151_3112"
    INDEX 01 02:37:38
  TRACK 80 AUDIO
    TITLE "0:"
    INDEX 01 02:41:21
  TRACK 81 AUDIO
    TITLE "2:cjc151_3113"
    INDEX 01 02:43:00
  TRACK 82 AUDIO
    TITLE "0:"
    INDEX 01 02:44:01
  TRACK 83 AUDIO
    TITLE "3:cjc151_3114"
    INDEX 01 02:45:50
  TRACK 84 AUDIO
    TITLE "0:"
    INDEX 01 02:49:20
  TRACK 85 AUDIO
    TITLE "2:cjc151_3115"
    INDEX 01 02:50:74
  TRACK 86 AUDIO
    TITLE "0:"
    INDEX 01 02:53:32
  TRACK 87 AUDIO
    TITLE "3:cjc151_3116"
    INDEX 01 02:55:09
  TRACK 88 AUDIO
    TITLE "0:"
    INDEX 01 02:59:03
